<?xml version="1.0" encoding="utf-8"?>
<!-- Generator: Adobe Illustrator 24.3.0, SVG Export Plug-In . SVG Version: 6.00 Build 0)  -->
<svg version="1.1" id="Layer_1" xmlns="http://www.w3.org/2000/svg" xmlns:xlink="http://www.w3.org/1999/xlink" x="0px" y="0px"
	 viewBox="0 0 1080 1080" style="enable-background:new 0 0 1080 1080;" xml:space="preserve">
<style type="text/css">
	.st0{fill:#FFFFFF;}
	.st1{fill:url(#SVGID_1_);}
	.st2{fill:url(#SVGID_2_);}
	.st3{fill:url(#SVGID_3_);}
	.st4{fill:url(#SVGID_4_);}
	.st5{fill:url(#SVGID_5_);}
	.st6{fill:url(#SVGID_6_);}
	.st7{fill:url(#SVGID_7_);}
	.st8{fill:url(#SVGID_8_);}
	.st9{fill:url(#SVGID_9_);}
	.st10{fill:#00ADCB;}
	.st11{fill:#808285;}
	.st12{fill:#313131;}
	.st13{fill:#7C7C7C;}
	.st14{fill:#828282;}
	.st15{fill:#1D3456;}
	.st16{fill:url(#SVGID_10_);}
	.st17{fill:url(#SVGID_11_);}
	.st18{fill:url(#SVGID_12_);}
	.st19{fill:url(#SVGID_13_);}
	.st20{fill:url(#SVGID_14_);}
	.st21{fill:url(#SVGID_15_);}
	.st22{fill:url(#SVGID_16_);}
	.st23{fill:url(#SVGID_17_);}
	.st24{fill:url(#SVGID_18_);}
	.st25{fill:url(#SVGID_19_);}
	.st26{fill:url(#SVGID_20_);}
	.st27{fill:url(#SVGID_21_);}
	.st28{fill:url(#SVGID_22_);}
	.st29{fill:url(#SVGID_23_);}
	.st30{fill:url(#SVGID_24_);}
	.st31{fill:url(#SVGID_25_);}
	.st32{fill:url(#SVGID_26_);}
	.st33{fill:url(#SVGID_27_);}
	.st34{fill:url(#SVGID_28_);}
	.st35{fill:url(#SVGID_29_);}
	.st36{fill:url(#SVGID_30_);}
	.st37{fill:url(#SVGID_31_);}
	.st38{fill:url(#SVGID_32_);}
	.st39{fill:url(#SVGID_33_);}
	.st40{fill:url(#SVGID_34_);}
</style>
<g>
	<g>
		<g>
			<path class="st0" d="M620.9,636l-21.8,14.7l-23.8-31.1c-10.8,3.9-22.3,5.8-34.7,5.8c-13.8,0-26.6-2.3-38.2-7
				c-11.6-4.6-21.7-11.1-30.1-19.3c-8.4-8.3-15-17.9-19.6-29c-4.6-11-7-23-7-35.8c0-12.8,2.3-24.7,7-35.8c4.6-11,11.2-20.7,19.6-29
				c8.4-8.3,18.5-14.7,30.1-19.4c11.6-4.6,24.4-7,38.2-7s26.5,2.3,38.1,7c11.5,4.6,21.6,11.1,30.1,19.4c8.5,8.3,15.1,17.9,19.7,29
				c4.6,11,7,23,7,35.8c0,15.2-3.3,29.1-9.7,41.7c-6.5,12.6-15.4,23.1-26.7,31.4L620.9,636z M607.8,534.3c0-12.3-2.9-23.3-8.6-33
				c-5.7-9.7-13.7-17.4-23.8-23c-10.1-5.6-21.7-8.5-34.7-8.5c-13.3,0-25,2.8-35,8.5c-10,5.7-17.9,13.3-23.5,23
				c-5.7,9.7-8.5,20.7-8.5,33c0,12.3,2.8,23.3,8.5,33c5.6,9.7,13.5,17.4,23.5,23c10,5.7,21.7,8.5,35,8.5c6.1,0,11.9-0.7,17.5-2
				l-26.1-33.9c0.2,0,1.3-0.7,3.5-2.2c2.2-1.4,4.8-3,7.7-4.8c2.9-1.8,6.7-4.1,11.3-7l28.1,36.7c7.8-5.7,13.9-13.1,18.3-22
				C605.6,554.7,607.8,544.9,607.8,534.3z"/>
		</g>
		<g>
			<path class="st0" d="M612.6,762.3l-1.4-5.2l-5.2,1.6c-21.4,6.5-43.7,9.8-66.1,9.8c-126.2,0-228.8-102.6-228.8-228.8
				c0-52.4,18.3-103.7,51.4-144.3l2.7-3.3l-2.7-3.3c-3.8-4.6-6.8-9.8-9.1-15.3l-3.2-7.8l-5.5,6.4c-40.1,46.7-62.2,106.2-62.2,167.6
				C282.5,681.5,398,797,539.9,797c25.9,0,51.6-3.9,76.2-11.5l6.3-2l-3.4-5.7C616.2,773,614,767.8,612.6,762.3z"/>
			<path class="st0" d="M633,300.3c-57.3-22.2-120.8-23.1-178.8-2.5l-8,2.8l6.1,5.8c4.3,4.1,8,8.8,11,14l2.1,3.7l4-1.3
				c49.9-16.2,104.3-14.8,153.2,4.2c56.9,22,101.8,65,126.6,121c24.7,56,26.2,118.1,4.2,175c-9.4,24.3-24.2,49-41.8,69.6l-3.4,4.3
				l4.4,3.2c4.6,3.3,8.7,7.3,12.2,11.7l4.1,5.2l4.1-5.1c26.4-32.3,38-54.7,47.2-78.5C831.3,500.9,765.4,351.6,633,300.3z"/>
		</g>
		<path class="st0" d="M435.6,330.2c-4.3-5.5-10.3-9.6-17.4-11.4c-0.6-0.2-1.2-0.3-1.8-0.5c-2.2-0.5-4.4-0.7-6.6-0.7
			c-6.3,0-12.5,1.8-17.9,5.4c-7.3,4.8-12.3,12.2-14,20.7c-0.2,1.1-0.4,2.1-0.5,3.2c-0.8,7.3,1,14.3,4.6,20.2
			c4.6,7.5,12.1,13.3,21.4,15.2c8.6,1.8,17.3,0.1,24.6-4.7c7.3-4.8,12.3-12.2,14-20.7C443.9,347.2,441.3,337.5,435.6,330.2z"/>
		<path class="st0" d="M701.2,733.3c-0.7-1.5-1.5-3-2.4-4.4c-2.5-3.8-5.7-7-9.5-9.4c-3.4-2.2-7.2-3.8-11.3-4.6
			c-2.2-0.5-4.4-0.7-6.6-0.7c-15.2,0-28.9,10.7-32,26.1c-0.8,3.7-0.8,7.5-0.3,11.1c0.7,4.7,2.3,9.3,5.1,13.4
			c0.7,1.1,1.6,2.2,2.4,3.2c4.7,5.6,11.1,9.4,18.3,10.8c17.7,3.6,35-7.8,38.6-25.5C705,746.6,704.1,739.6,701.2,733.3z"/>
	</g>
</g>
</svg>
